
<svg id="katman_2" data-name="katman 2" xmlns="http://www.w3.org/2000/svg" viewBox="0 0 392.73 652.17">
  <defs>
    <style>
     
    </style>
  </defs>
  <g id="araba">
    <g id="sağ_ön_teker" data-name="sağ ön teker">
      <circle cx="359.86" cy="171.04" r="32.86"/>
      <circle className="cls-2" cx="359.86" cy="171.04" r="20.62"/>
    </g>
    <g id="sol_ön_teker" data-name="sol ön teker">
      <circle cx="32.86" cy="171.04" r="32.86"/>
      <circle className="cls-2" cx="32.86" cy="171.04" r="20.62"/>
    </g>
    <g id="sağ_arka_teker" data-name="sağ arka teker">
      <circle cx="359.86" cy="453.77" r="32.86"/>
      <circle className="cls-2" cx="359.86" cy="453.77" r="20.62"/>
    </g>
    <g id="sol_arka_teker" data-name="sol arka teker">
      <circle cx="32.86" cy="453.77" r="32.86"/>
      <circle className="cls-2" cx="32.86" cy="453.77" r="20.62"/>
    </g>
    <rect id="arka_plaka" data-name="arka plaka" className="cls-1" x="167.24" y="559.67" width="58" height="15.5" rx="4.22" ry="4.22"/>
    <rect id="_ön_plaka" data-name="ön plaka" className="cls-1" x="167.24" y="44.42" width="58" height="15.5" rx="4.22" ry="4.22"/>
    <g id="sağ_arka_kapı" data-name="sağ arka kapı">
      <path className="cls-1" d="M363.25,337.49v72.58s-33.59-.83-43.53,31.5h-20.5l-39-17.5v-79.5l47.5-8,55.53.92Z"/>
      <polygon className="cls-1" points="296.72 345.58 296.72 432.58 260.22 421.08 260.22 350.08 296.72 345.58"/>
      <rect className="cls-1" x="308.22" y="411" width="3" height="21.17"/>
    </g>
    <g id="sol_arka_kapı" data-name="sol arka kapı">
      <path className="cls-1" d="M28.33,337.27v72.58s33.59-.83,43.53,31.5h20.5s39-17.5,39-17.5v-79.5s-47.5-8-47.5-8l-55.53.92Z"/>
      <polygon className="cls-1" points="94.86 345.35 94.86 432.35 131.36 420.85 131.36 349.85 94.86 345.35"/>
      <rect className="cls-1" x="80.36" y="410.77" width="3" height="21.17" transform="translate(163.72 842.71) rotate(-180)"/>
    </g>
    <path id="sağ_dış" data-name="sağ dış" className="cls-1" d="M251.87,305.67v125.5l40.5,96v9.5s-1.44,7.89,10.5,14h24.5l.76,5.75h26.74s10.22-2.79,10.59-20.54.91-43.21.91-43.21c0,0-45.5-.5-42.24-41.5,0,0-.53-36,45.74-36v-206.5s-49.57,5.06-46.5-40,46.25-36.75,46.25-36.75v-46.5h-9v6.5l-6.5-6.5h-17.25l-18,5.25s-9.8,9.87-14.75,43.67-6.75,60.83-6.75,60.83l-37,77.5-8.5,33Z"/>
    <path id="sol_dış" data-name="sol dış" className="cls-1" d="M141.21,305.67v115.46c0,6.63-1.33,13.19-3.9,19.3l-36.6,86.75v9.5s1.44,7.89-10.5,14h-24.5s-.76,5.75-.76,5.75h-26.74s-10.22-2.79-10.59-20.54-.91-43.21-.91-43.21c0,0,44.81,4.75,43.03-42,0,0-.25-35.5-46.53-35.5v-206.5s48.6,5.12,46.5-40c-1.97-42.5-46.25-36.75-46.25-36.75v-46.5h9v6.5s6.5-6.5,6.5-6.5h17.25s18,5.25,18,5.25c0,0,9.8,9.87,14.75,43.67,4.95,33.81,6.75,60.83,6.75,60.83l37,77.5,8.5,33Z"/>
    <g id="sağ_ön_kapı" data-name="sağ ön kapı">
      <rect className="cls-1" x="307.95" y="304.88" width="3" height="21.17"/>
      <path className="cls-1" d="M363.27,336.67v-99.9s.97-11.44-7.53-11.44-48.5-.33-48.5-.33c0,0-8.2.67-15.35,14.17s-30.15,64.5-30.15,64.5l-1.5,41,47.5-8h55.53Z"/>
      <polygon className="cls-1" points="260.72 340.17 295.24 331.67 295.24 265 280.74 262.22 261.74 303.67 260.72 340.17"/>
      <polyline className="cls-1" points="295.24 265 297.24 239.17 291.89 239.17"/>
    </g>
    <g id="sol_ön_kapı" data-name="sol ön kapı">
      <rect className="cls-1" x="80.67" y="303.72" width="3" height="21.17" transform="translate(164.34 628.6) rotate(-180)"/>
      <path className="cls-1" d="M28.35,335.5v-99.9s-.97-11.44,7.53-11.44,48.5-.33,48.5-.33c0,0,8.2.67,15.35,14.17,7.15,13.5,30.15,64.5,30.15,64.5l1.5,41-47.5-8H28.35Z"/>
      <polygon className="cls-1" points="130.89 339 96.38 330.5 96.38 263.83 110.88 261.05 129.88 302.5 130.89 339"/>
      <polyline className="cls-1" points="96.38 263.83 94.38 238 99.73 238"/>
    </g>
    <path id="sol_arka_tampon" data-name="sol arka tampon" className="cls-1" d="M64.24,476.19v80.23h-24.5c-1.28-.33-3.07-.95-4.86-2.23-6.58-4.69-7.25-14-7.64-23.02-.44-10.35-.63-23.33,0-38.5,0,0,24.78,3.16,37-16.48Z"/>
    <path id="sağ_arka_tampon" data-name="sağ arka tampon" className="cls-1" d="M328.18,476.05v80.23s24.5,0,24.5,0c1.28-.33,3.07-.95,4.86-2.23,6.58-4.69,7.25-14,7.64-23.02.44-10.35.63-23.33,0-38.5,0,0-24.78,3.16-37-16.48Z"/>
    <g id="_ön_cam" data-name="ön cam">
      <path className="cls-1" d="M194.49,191.92h-38.38c-17.96,0-38.87,18.25-38.87,18.25l17.6,70s19.51-9,31.4-9h60.75s18.23,1.94,30.58,8l17.67-68.5s-21.97-18.75-40.83-18.75c-18.86,0-40.3,0-40.3,0"/>
    </g>
    <path id="orta_üst" data-name="orta üst" className="cls-1" d="M135.37,279.99c-.22.1-.51.36-.44.6.81,2.77,6.28,16.17,6.28,29.42,0,14.5-.6,113.92-.6,113.92,0,0-1.89,14.64-3.9,20.18-.51,1.4.23,3.2,1.66,3.64,4.78,1.47,18.18,3.43,55.74,3.43,59.91,0,62-6,62-6l-4.35-14.42v-124.58l5.82-27.17s-21.46-8.33-31.71-8.33h-60.75s-17.17,3.43-29.74,9.32Z"/>
    <path id="arka_cam" data-name="arka cam" className="cls-1" d="M261.24,505.22l-5-58.74c-11.04,4.01-27.5,4.42-27.5,4.42h-54.5c-33.17,0-37.86-4.42-37.86-4.42,0,0-4.48,44.54-5.64,62.35v10.03s21.17,12,42.75,12h48.25s22.38-1.36,40-13.5l-.5-12.14Z"/>
    <path id="arka_bagaj_çizgi" data-name="arka bagaj çizgi" className="cls-1" d="M130.74,518.5c.42-.16,23.25,12.84,41.75,12.84h49s29.49-4.24,39.77-13.71c.19-.17.48-.05.48.21v16.33s-2.25,13.73-20,13.73h-99.65s-11.27-3.23-11.27-16.23l-.08-13.17Z"/>
    <path id="_ön_kaput" data-name="ön kaput" className="cls-1" d="M117.07,209.49l4.5-101.33s4.89-18.72,41.67-18.72h74s33.5,2.11,33.5,19.22,4.5,102,4.5,102c0,0-23.47-17.02-37.25-18.54-1.19-.13-84.5,0-84.5,0,0,0-15.95.53-35.92,17.6-.2.17-.5.03-.49-.23Z"/>
    <path id="sol_ön_far" data-name="sol ön far" className="cls-1" d="M57.21,85.42v21.25s16.05,3,17.03-6.5l.97-9.5-18-5.25Z"/>
    <path id="sağ_ön_far" data-name="sağ ön far" className="cls-1" d="M334.74,86.17v21.25s-16.05,3-17.03-6.5l-.63-6.15c-.2-1.94,1.08-3.9,2.95-4.44l14.7-4.16Z"/>
    <path id="sol_ön_tampon" data-name="sol ön tampon" className="cls-1" d="M60.24,107.33v35.58s-12.3-13.42-36.77-11v-46.5h9v6.5l6.5-6.5h17.25v21.25l4.02.67Z"/>
    <path id="sağ_ön_tampon" data-name="sağ ön tampon" className="cls-1" d="M330.74,107.87l.3,37.55s14.11-15.92,38.58-13.5v-46.5s-9,0-9,0v6.5s-6.5-6.5-6.5-6.5l-19.13.74c-.15,0-.26.13-.26.27v20.99s-4,.45-4,.45Z"/>
    <path id="sağ_ön_kaput_ince_çizgi" data-name="sağ ön kaput ince çizgi" className="cls-1" d="M295.46,199.17l3.28,15.5,18.5-112-.79-8.68s-11.94,9.45-19.07,101.18l-1.91,4Z"/>
    <path id="sol_ön_kaput_ince_çizgi" data-name="sol ön kaput ince çizgi" className="cls-1" d="M97.63,199.17l-3.28,15.5-18.5-112,.79-8.68s11.94,9.45,19.07,101.18l1.91,4Z"/>
    <path id="sol_arka_far" data-name="sol arka far" className="cls-1" d="M74.24,550.67v-17.75c0-1.38,1.12-2.5,2.5-2.5h16c1.38,0,2.5,1.12,2.5,2.5v14.75l-5.03,3h-15.97Z"/>
    <path id="sağ_arka_far" data-name="sağ arka far" className="cls-1" d="M318.24,550.67v-17.75c0-1.38-1.12-2.5-2.5-2.5h-16c-1.38,0-2.5,1.12-2.5,2.5v13.75l5.5,3.83,15.5.17Z"/>
    <path id="sol_arka_kelebek_cam" data-name="sol arka kelebek cam" className="cls-1" d="M96.57,445.92l34.79-16.75-26.12,45.5s-8.67,4.29-8.67-3.98v-24.77Z"/>
    <path id="sol_arka_kelebek_cam-2" data-name="sol arka kelebek cam" className="cls-1" d="M295.39,445.92l-34.79-16.75,26.12,45.5s8.67,4.29,8.67-3.98c0-8.27,0-24.77,0-24.77Z"/>
    <path id="arka_tampon" data-name="arka tampon" className="cls-1" d="M110.68,600.67c0,.36.06.71.07,1.06.84,36.79,45.49,17.62,45.49,17.62h85c45,18.68,41-18.68,41-18.68v-11H109.99l.76,12.06"/>
    <path id="_ön_tampon" data-name="ön tampon" className="cls-1" d="M109.24,71.26s-4-38.19,14-38.19h146.3c3.01,0,5.84,1.42,7.65,3.83,3.53,4.72,7.82,14.53,5.56,33.17l-173.5,1.19Z"/>
    <path id="sağ_ön_teker_ön_görünüm" data-name="sağ ön teker ön görünüm" d="M281.36,45.42V4.92S282.36,0,267.86,0s-13.75,4.92-13.75,4.92c0,9.38,0,18.77,0,28.15,2.46,0,5.51,0,9,0,7.17.02,8.2.06,9.45.49,1.83.63,6.03,2.76,8.79,11.85Z"/>
    <path id="sol_ön_teker_ön_görünüm" data-name="sol ön teker ön görünüm" d="M111.35,43.67c-.12.32.01.21.01-.13V4.92S110.37,0,124.87,0s13.75,4.92,13.75,4.92c0,9.38,0,18.77,0,28.15-2.46,0-5.51,0-9,0-7.17.02-8.2.06-9.45.49-1.7.59-6.07,2.51-8.81,10.1Z"/>
    <path id="sağ_ön_teker_ön_görünüm-2" data-name="sağ ön teker ön görünüm" className="cls-3" d="M282.33,605.17l-.97,41.08s1,4.92-13.5,4.92-13.75-4.92-13.75-4.92c0-9.38,0-13.44,0-22.82,2.46,0,5.51,1.53,9,1.52,7.17-.02,12.62-4.28,13.18-5.18,1.02-1.64,3.27-5.5,6.03-14.6Z"/>
    <path id="sol_ön_teker_ön_görünüm-2" data-name="sol ön teker ön görünüm" d="M109.99,603.47c-.04-.31.44,9.24.44,9.55v34.72s-1.03,4.42,13.97,4.42,14.22-4.42,14.22-4.42c0-8.44,0-15.44,0-23.88-2.55,0-5.7,0-9.31,0-7.42-.02-8.49-3.48-9.78-3.87-1.76-.53-8.29-7.88-9.54-16.53Z"/>
  </g>
</svg>